<?xml version="1.0" encoding="UTF-8" standalone="no"?>
<!DOCTYPE svg PUBLIC "-//W3C//DTD SVG 1.1//EN"
 "http://www.w3.org/Graphics/SVG/1.1/DTD/svg11.dtd">
<!-- Generated by graphviz version 2.40.1 (20161225.0304)
 -->
<!-- Title: dependencies Pages: 1 -->
<svg width="6680pt" height="284pt"
 viewBox="0.00 0.00 6680.00 284.00" xmlns="http://www.w3.org/2000/svg" xmlns:xlink="http://www.w3.org/1999/xlink">
<g id="graph0" class="graph" transform="scale(1 1) rotate(0) translate(4 280)">
<title>dependencies</title>
<polygon fill="#ffffff" stroke="transparent" points="-4,4 -4,-280 6676,-280 6676,4 -4,4"/>
<text text-anchor="start" x="3315.0091" y="-42.4" font-family="sans-serif" font-weight="bold" font-size="14.00" fill="#000000">Legend</text>
<polygon fill="#ffffb3" stroke="transparent" points="3102,-10 3102,-30 3122,-30 3122,-10 3102,-10"/>
<text text-anchor="start" x="3125.629" y="-15.4" font-family="sans-serif" font-size="14.00" fill="#000000"> &#160;Declarations</text>
<polygon fill="#8dd3c7" stroke="transparent" points="3215,-10 3215,-30 3235,-30 3235,-10 3215,-10"/>
<text text-anchor="start" x="3238.7251" y="-15.4" font-family="sans-serif" font-size="14.00" fill="#000000"> &#160;Module</text>
<polygon fill="#80b1d3" stroke="transparent" points="3301,-10 3301,-30 3321,-30 3321,-10 3301,-10"/>
<text text-anchor="start" x="3324.7812" y="-15.4" font-family="sans-serif" font-size="14.00" fill="#000000"> &#160;Bootstrap</text>
<polygon fill="#fdb462" stroke="transparent" points="3398,-10 3398,-30 3418,-30 3418,-10 3398,-10"/>
<text text-anchor="start" x="3421.6732" y="-15.4" font-family="sans-serif" font-size="14.00" fill="#000000"> &#160;Providers</text>
<polygon fill="#fb8072" stroke="transparent" points="3494,-10 3494,-30 3514,-30 3514,-10 3494,-10"/>
<text text-anchor="start" x="3517.7258" y="-15.4" font-family="sans-serif" font-size="14.00" fill="#000000"> &#160;Exports</text>
<g id="clust1" class="cluster">
<title>cluster_AppModule</title>
<polygon fill="none" stroke="#000000" stroke-dasharray="1,5" points="8,-70 8,-268 6664,-268 6664,-70 8,-70"/>
</g>
<g id="clust2" class="cluster">
<title>cluster_AppModule_declarations</title>
<polygon fill="none" stroke="#000000" points="1102,-78 1102,-130 6656,-130 6656,-78 1102,-78"/>
</g>
<g id="clust40" class="cluster">
<title>cluster_AppModule_bootstrap</title>
<polygon fill="none" stroke="#000000" points="3280,-208 3280,-260 3368,-260 3368,-208 3280,-208"/>
</g>
<g id="clust41" class="cluster">
<title>cluster_AppModule_providers</title>
<polygon fill="none" stroke="#000000" points="16,-78 16,-130 1094,-130 1094,-78 16,-78"/>
</g>
<!-- MyApp -->
<g id="node1" class="node">
<title>MyApp</title>
<polygon fill="#ffffb3" stroke="#000000" points="6647.5529,-122 6588.4471,-122 6588.4471,-86 6647.5529,-86 6647.5529,-122"/>
<text text-anchor="middle" x="6618" y="-99.8" font-family="Times,serif" font-size="14.00" fill="#000000">MyApp</text>
</g>
<!-- AppModule -->
<g id="node36" class="node">
<title>AppModule</title>
<polygon fill="#8dd3c7" stroke="#000000" points="3365.6571,-187 3362.6571,-191 3341.6571,-191 3338.6571,-187 3282.3429,-187 3282.3429,-151 3365.6571,-151 3365.6571,-187"/>
<text text-anchor="middle" x="3324" y="-164.8" font-family="Times,serif" font-size="14.00" fill="#000000">AppModule</text>
</g>
<!-- MyApp&#45;&gt;AppModule -->
<g id="edge1" class="edge">
<title>MyApp&#45;&gt;AppModule</title>
<path fill="none" stroke="#000000" d="M6618,-122.1985C6618,-146.3563 6618,-186 6618,-186 6618,-186 3375.948,-186 3375.948,-186"/>
<polygon fill="#000000" stroke="#000000" points="3375.948,-182.5001 3365.948,-186 3375.948,-189.5001 3375.948,-182.5001"/>
</g>
<!-- LoginPage -->
<g id="node2" class="node">
<title>LoginPage</title>
<polygon fill="#ffffb3" stroke="#000000" points="6570.1558,-122 6493.8442,-122 6493.8442,-86 6570.1558,-86 6570.1558,-122"/>
<text text-anchor="middle" x="6532" y="-99.8" font-family="Times,serif" font-size="14.00" fill="#000000">LoginPage</text>
</g>
<!-- LoginPage&#45;&gt;AppModule -->
<g id="edge2" class="edge">
<title>LoginPage&#45;&gt;AppModule</title>
<path fill="none" stroke="#000000" d="M6532,-122.1532C6532,-145.7566 6532,-184 6532,-184 6532,-184 3375.7343,-184 3375.7343,-184"/>
<polygon fill="#000000" stroke="#000000" points="3375.7343,-180.5001 3365.7343,-184 3375.7342,-187.5001 3375.7343,-180.5001"/>
</g>
<!-- RegisterPage -->
<g id="node3" class="node">
<title>RegisterPage</title>
<polygon fill="#ffffb3" stroke="#000000" points="6475.8641,-122 6386.1359,-122 6386.1359,-86 6475.8641,-86 6475.8641,-122"/>
<text text-anchor="middle" x="6431" y="-99.8" font-family="Times,serif" font-size="14.00" fill="#000000">RegisterPage</text>
</g>
<!-- RegisterPage&#45;&gt;AppModule -->
<g id="edge3" class="edge">
<title>RegisterPage&#45;&gt;AppModule</title>
<path fill="none" stroke="#000000" d="M6431,-122.3228C6431,-145.6602 6431,-183 6431,-183 6431,-183 3375.8624,-183 3375.8624,-183"/>
<polygon fill="#000000" stroke="#000000" points="3375.8624,-179.5001 3365.8624,-183 3375.8623,-186.5001 3375.8624,-179.5001"/>
</g>
<!-- StudentRegisterPage -->
<g id="node4" class="node">
<title>StudentRegisterPage</title>
<polygon fill="#ffffb3" stroke="#000000" points="6368.1429,-122 6235.8571,-122 6235.8571,-86 6368.1429,-86 6368.1429,-122"/>
<text text-anchor="middle" x="6302" y="-99.8" font-family="Times,serif" font-size="14.00" fill="#000000">StudentRegisterPage</text>
</g>
<!-- StudentRegisterPage&#45;&gt;AppModule -->
<g id="edge4" class="edge">
<title>StudentRegisterPage&#45;&gt;AppModule</title>
<path fill="none" stroke="#000000" d="M6302,-122.2479C6302,-145.0179 6302,-181 6302,-181 6302,-181 3375.8132,-181 3375.8132,-181"/>
<polygon fill="#000000" stroke="#000000" points="3375.8133,-177.5001 3365.8132,-181 3375.8132,-184.5001 3375.8133,-177.5001"/>
</g>
<!-- StudentSetupPage -->
<g id="node5" class="node">
<title>StudentSetupPage</title>
<polygon fill="#ffffb3" stroke="#000000" points="6217.8781,-122 6100.1219,-122 6100.1219,-86 6217.8781,-86 6217.8781,-122"/>
<text text-anchor="middle" x="6159" y="-99.8" font-family="Times,serif" font-size="14.00" fill="#000000">StudentSetupPage</text>
</g>
<!-- StudentSetupPage&#45;&gt;AppModule -->
<g id="edge5" class="edge">
<title>StudentSetupPage&#45;&gt;AppModule</title>
<path fill="none" stroke="#000000" d="M6159,-122.1554C6159,-144.3519 6159,-179 6159,-179 6159,-179 3375.7209,-179 3375.7209,-179"/>
<polygon fill="#000000" stroke="#000000" points="3375.7209,-175.5001 3365.7209,-179 3375.7209,-182.5001 3375.7209,-175.5001"/>
</g>
<!-- StudentEducationPage -->
<g id="node6" class="node">
<title>StudentEducationPage</title>
<polygon fill="#ffffb3" stroke="#000000" points="6082.2534,-122 5939.7466,-122 5939.7466,-86 6082.2534,-86 6082.2534,-122"/>
<text text-anchor="middle" x="6011" y="-99.8" font-family="Times,serif" font-size="14.00" fill="#000000">StudentEducationPage</text>
</g>
<!-- StudentEducationPage&#45;&gt;AppModule -->
<g id="edge6" class="edge">
<title>StudentEducationPage&#45;&gt;AppModule</title>
<path fill="none" stroke="#000000" d="M6011,-122.2921C6011,-144.2057 6011,-178 6011,-178 6011,-178 3375.6671,-178 3375.6671,-178"/>
<polygon fill="#000000" stroke="#000000" points="3375.6671,-174.5001 3365.6671,-178 3375.6671,-181.5001 3375.6671,-174.5001"/>
</g>
<!-- StudentContactPage -->
<g id="node7" class="node">
<title>StudentContactPage</title>
<polygon fill="#ffffb3" stroke="#000000" points="5921.538,-122 5792.462,-122 5792.462,-86 5921.538,-86 5921.538,-122"/>
<text text-anchor="middle" x="5857" y="-99.8" font-family="Times,serif" font-size="14.00" fill="#000000">StudentContactPage</text>
</g>
<!-- StudentContactPage&#45;&gt;AppModule -->
<g id="edge7" class="edge">
<title>StudentContactPage&#45;&gt;AppModule</title>
<path fill="none" stroke="#000000" d="M5857,-122.1686C5857,-143.498 5857,-176 5857,-176 5857,-176 3375.8516,-176 3375.8516,-176"/>
<polygon fill="#000000" stroke="#000000" points="3375.8516,-172.5001 3365.8516,-176 3375.8516,-179.5001 3375.8516,-172.5001"/>
</g>
<!-- StudentJobPreferencesPage -->
<g id="node8" class="node">
<title>StudentJobPreferencesPage</title>
<polygon fill="#ffffb3" stroke="#000000" points="5774.217,-122 5603.783,-122 5603.783,-86 5774.217,-86 5774.217,-122"/>
<text text-anchor="middle" x="5689" y="-99.8" font-family="Times,serif" font-size="14.00" fill="#000000">StudentJobPreferencesPage</text>
</g>
<!-- StudentJobPreferencesPage&#45;&gt;AppModule -->
<g id="edge8" class="edge">
<title>StudentJobPreferencesPage&#45;&gt;AppModule</title>
<path fill="none" stroke="#000000" d="M5689,-122.0267C5689,-142.7672 5689,-174 5689,-174 5689,-174 3375.8007,-174 3375.8007,-174"/>
<polygon fill="#000000" stroke="#000000" points="3375.8008,-170.5001 3365.8007,-174 3375.8007,-177.5001 3375.8008,-170.5001"/>
</g>
<!-- StudentSkillsPage -->
<g id="node9" class="node">
<title>StudentSkillsPage</title>
<polygon fill="#ffffb3" stroke="#000000" points="5585.8893,-122 5468.1107,-122 5468.1107,-86 5585.8893,-86 5585.8893,-122"/>
<text text-anchor="middle" x="5527" y="-99.8" font-family="Times,serif" font-size="14.00" fill="#000000">StudentSkillsPage</text>
</g>
<!-- StudentSkillsPage&#45;&gt;AppModule -->
<g id="edge9" class="edge">
<title>StudentSkillsPage&#45;&gt;AppModule</title>
<path fill="none" stroke="#000000" d="M5527,-122.1289C5527,-142.5724 5527,-173 5527,-173 5527,-173 3376.0407,-173 3376.0407,-173"/>
<polygon fill="#000000" stroke="#000000" points="3376.0407,-169.5001 3366.0407,-173 3376.0407,-176.5001 3376.0407,-169.5001"/>
</g>
<!-- StudentWorkExperiencePage -->
<g id="node10" class="node">
<title>StudentWorkExperiencePage</title>
<polygon fill="#ffffb3" stroke="#000000" points="5450.3277,-122 5269.6723,-122 5269.6723,-86 5450.3277,-86 5450.3277,-122"/>
<text text-anchor="middle" x="5360" y="-99.8" font-family="Times,serif" font-size="14.00" fill="#000000">StudentWorkExperiencePage</text>
</g>
<!-- StudentWorkExperiencePage&#45;&gt;AppModule -->
<g id="edge10" class="edge">
<title>StudentWorkExperiencePage&#45;&gt;AppModule</title>
<path fill="none" stroke="#000000" d="M5360,-122.308C5360,-142.1455 5360,-171 5360,-171 5360,-171 3376.0574,-171 3376.0574,-171"/>
<polygon fill="#000000" stroke="#000000" points="3376.0574,-167.5001 3366.0574,-171 3376.0574,-174.5001 3376.0574,-167.5001"/>
</g>
<!-- StudentPhase1Page -->
<g id="node11" class="node">
<title>StudentPhase1Page</title>
<polygon fill="#ffffb3" stroke="#000000" points="5251.6471,-122 5126.3529,-122 5126.3529,-86 5251.6471,-86 5251.6471,-122"/>
<text text-anchor="middle" x="5189" y="-99.8" font-family="Times,serif" font-size="14.00" fill="#000000">StudentPhase1Page</text>
</g>
<!-- StudentPhase1Page&#45;&gt;AppModule -->
<g id="edge11" class="edge">
<title>StudentPhase1Page&#45;&gt;AppModule</title>
<path fill="none" stroke="#000000" d="M5189,-122.1061C5189,-141.3391 5189,-169 5189,-169 5189,-169 3376.0115,-169 3376.0115,-169"/>
<polygon fill="#000000" stroke="#000000" points="3376.0116,-165.5001 3366.0115,-169 3376.0115,-172.5001 3376.0116,-165.5001"/>
</g>
<!-- StudentPhase2Page -->
<g id="node12" class="node">
<title>StudentPhase2Page</title>
<polygon fill="#ffffb3" stroke="#000000" points="5107.6471,-122 4982.3529,-122 4982.3529,-86 5107.6471,-86 5107.6471,-122"/>
<text text-anchor="middle" x="5045" y="-99.8" font-family="Times,serif" font-size="14.00" fill="#000000">StudentPhase2Page</text>
</g>
<!-- StudentPhase2Page&#45;&gt;AppModule -->
<g id="edge12" class="edge">
<title>StudentPhase2Page&#45;&gt;AppModule</title>
<path fill="none" stroke="#000000" d="M5045,-122.1686C5045,-141.0898 5045,-168 5045,-168 5045,-168 3375.6891,-168 3375.6891,-168"/>
<polygon fill="#000000" stroke="#000000" points="3375.6891,-164.5001 3365.6891,-168 3375.689,-171.5001 3375.6891,-164.5001"/>
</g>
<!-- StudentPhase3Page -->
<g id="node13" class="node">
<title>StudentPhase3Page</title>
<polygon fill="#ffffb3" stroke="#000000" points="4963.6471,-122 4838.3529,-122 4838.3529,-86 4963.6471,-86 4963.6471,-122"/>
<text text-anchor="middle" x="4901" y="-99.8" font-family="Times,serif" font-size="14.00" fill="#000000">StudentPhase3Page</text>
</g>
<!-- StudentPhase3Page&#45;&gt;AppModule -->
<g id="edge13" class="edge">
<title>StudentPhase3Page&#45;&gt;AppModule</title>
<path fill="none" stroke="#000000" d="M4901,-122.2667C4901,-140.5552 4901,-166 4901,-166 4901,-166 3375.7747,-166 3375.7747,-166"/>
<polygon fill="#000000" stroke="#000000" points="3375.7748,-162.5001 3365.7747,-166 3375.7747,-169.5001 3375.7748,-162.5001"/>
</g>
<!-- StudentProfileDetailsPage -->
<g id="node14" class="node">
<title>StudentProfileDetailsPage</title>
<polygon fill="#ffffb3" stroke="#000000" points="4819.7422,-122 4656.2578,-122 4656.2578,-86 4819.7422,-86 4819.7422,-122"/>
<text text-anchor="middle" x="4738" y="-99.8" font-family="Times,serif" font-size="14.00" fill="#000000">StudentProfileDetailsPage</text>
</g>
<!-- StudentProfileDetailsPage&#45;&gt;AppModule -->
<g id="edge14" class="edge">
<title>StudentProfileDetailsPage&#45;&gt;AppModule</title>
<path fill="none" stroke="#000000" d="M4738,-122.302C4738,-140.2699 4738,-165 4738,-165 4738,-165 3375.9346,-165 3375.9346,-165"/>
<polygon fill="#000000" stroke="#000000" points="3375.9346,-161.5001 3365.9346,-165 3375.9345,-168.5001 3375.9346,-161.5001"/>
</g>
<!-- CompanyRegister1Page -->
<g id="node15" class="node">
<title>CompanyRegister1Page</title>
<polygon fill="#ffffb3" stroke="#000000" points="4637.8061,-122 4486.1939,-122 4486.1939,-86 4637.8061,-86 4637.8061,-122"/>
<text text-anchor="middle" x="4562" y="-99.8" font-family="Times,serif" font-size="14.00" fill="#000000">CompanyRegister1Page</text>
</g>
<!-- CompanyRegister1Page&#45;&gt;AppModule -->
<g id="edge15" class="edge">
<title>CompanyRegister1Page&#45;&gt;AppModule</title>
<path fill="none" stroke="#000000" d="M4562,-122.0225C4562,-139.3734 4562,-163 4562,-163 4562,-163 3375.8999,-163 3375.8999,-163"/>
<polygon fill="#000000" stroke="#000000" points="3375.8999,-159.5001 3365.8999,-163 3375.8998,-166.5001 3375.8999,-159.5001"/>
</g>
<!-- CompanyRegister2Page -->
<g id="node16" class="node">
<title>CompanyRegister2Page</title>
<polygon fill="#ffffb3" stroke="#000000" points="4468.8061,-122 4317.1939,-122 4317.1939,-86 4468.8061,-86 4468.8061,-122"/>
<text text-anchor="middle" x="4393" y="-99.8" font-family="Times,serif" font-size="14.00" fill="#000000">CompanyRegister2Page</text>
</g>
<!-- CompanyRegister2Page&#45;&gt;AppModule -->
<g id="edge16" class="edge">
<title>CompanyRegister2Page&#45;&gt;AppModule</title>
<path fill="none" stroke="#000000" d="M4393,-122.0352C4393,-138.7344 4393,-161 4393,-161 4393,-161 3375.9061,-161 3375.9061,-161"/>
<polygon fill="#000000" stroke="#000000" points="3375.9061,-157.5001 3365.9061,-161 3375.906,-164.5001 3375.9061,-157.5001"/>
</g>
<!-- CompanyRegisterConfirmPage -->
<g id="node17" class="node">
<title>CompanyRegisterConfirmPage</title>
<polygon fill="#ffffb3" stroke="#000000" points="4298.745,-122 4107.255,-122 4107.255,-86 4298.745,-86 4298.745,-122"/>
<text text-anchor="middle" x="4203" y="-99.8" font-family="Times,serif" font-size="14.00" fill="#000000">CompanyRegisterConfirmPage</text>
</g>
<!-- CompanyRegisterConfirmPage&#45;&gt;AppModule -->
<g id="edge17" class="edge">
<title>CompanyRegisterConfirmPage&#45;&gt;AppModule</title>
<path fill="none" stroke="#000000" d="M4203,-122.027C4203,-138.3976 4203,-160 4203,-160 4203,-160 3375.8047,-160 3375.8047,-160"/>
<polygon fill="#000000" stroke="#000000" points="3375.8047,-156.5001 3365.8047,-160 3375.8046,-163.5001 3375.8047,-156.5001"/>
</g>
<!-- CompanySetupPage -->
<g id="node18" class="node">
<title>CompanySetupPage</title>
<polygon fill="#ffffb3" stroke="#000000" points="4088.5422,-122 3959.4578,-122 3959.4578,-86 4088.5422,-86 4088.5422,-122"/>
<text text-anchor="middle" x="4024" y="-99.8" font-family="Times,serif" font-size="14.00" fill="#000000">CompanySetupPage</text>
</g>
<!-- CompanySetupPage&#45;&gt;AppModule -->
<g id="edge18" class="edge">
<title>CompanySetupPage&#45;&gt;AppModule</title>
<path fill="none" stroke="#000000" d="M4024,-122.2819C4024,-137.9478 4024,-158 4024,-158 4024,-158 3375.6919,-158 3375.6919,-158"/>
<polygon fill="#000000" stroke="#000000" points="3375.6919,-154.5001 3365.6919,-158 3375.6918,-161.5001 3375.6919,-154.5001"/>
</g>
<!-- CompanyJobCreate1Page -->
<g id="node19" class="node">
<title>CompanyJobCreate1Page</title>
<polygon fill="#ffffb3" stroke="#000000" points="3941.1302,-122 3780.8698,-122 3780.8698,-86 3941.1302,-86 3941.1302,-122"/>
<text text-anchor="middle" x="3861" y="-99.8" font-family="Times,serif" font-size="14.00" fill="#000000">CompanyJobCreate1Page</text>
</g>
<!-- CompanyJobCreate1Page&#45;&gt;AppModule -->
<g id="edge19" class="edge">
<title>CompanyJobCreate1Page&#45;&gt;AppModule</title>
<path fill="none" stroke="#000000" d="M3861,-122.1871C3861,-137.1824 3861,-156 3861,-156 3861,-156 3375.6906,-156 3375.6906,-156"/>
<polygon fill="#000000" stroke="#000000" points="3375.6907,-152.5001 3365.6906,-156 3375.6906,-159.5001 3375.6907,-152.5001"/>
</g>
<!-- CompanyJobCreate2Page -->
<g id="node20" class="node">
<title>CompanyJobCreate2Page</title>
<polygon fill="#ffffb3" stroke="#000000" points="3762.1302,-122 3601.8698,-122 3601.8698,-86 3762.1302,-86 3762.1302,-122"/>
<text text-anchor="middle" x="3682" y="-99.8" font-family="Times,serif" font-size="14.00" fill="#000000">CompanyJobCreate2Page</text>
</g>
<!-- CompanyJobCreate2Page&#45;&gt;AppModule -->
<g id="edge20" class="edge">
<title>CompanyJobCreate2Page&#45;&gt;AppModule</title>
<path fill="none" stroke="#000000" d="M3682,-122.1243C3682,-136.7832 3682,-155 3682,-155 3682,-155 3375.7678,-155 3375.7678,-155"/>
<polygon fill="#000000" stroke="#000000" points="3375.7678,-151.5001 3365.7678,-155 3375.7678,-158.5001 3375.7678,-151.5001"/>
</g>
<!-- CompanyJobCreate3Page -->
<g id="node21" class="node">
<title>CompanyJobCreate3Page</title>
<polygon fill="#ffffb3" stroke="#000000" points="3583.1302,-122 3422.8698,-122 3422.8698,-86 3583.1302,-86 3583.1302,-122"/>
<text text-anchor="middle" x="3503" y="-99.8" font-family="Times,serif" font-size="14.00" fill="#000000">CompanyJobCreate3Page</text>
</g>
<!-- CompanyJobCreate3Page&#45;&gt;AppModule -->
<g id="edge21" class="edge">
<title>CompanyJobCreate3Page&#45;&gt;AppModule</title>
<path fill="none" stroke="#000000" d="M3503,-122.2458C3503,-136.1772 3503,-153 3503,-153 3503,-153 3375.9675,-153 3375.9675,-153"/>
<polygon fill="#000000" stroke="#000000" points="3375.9676,-149.5001 3365.9675,-153 3375.9675,-156.5001 3375.9676,-149.5001"/>
</g>
<!-- CompanyJobCreate4Page -->
<g id="node22" class="node">
<title>CompanyJobCreate4Page</title>
<polygon fill="#ffffb3" stroke="#000000" points="3404.1302,-122 3243.8698,-122 3243.8698,-86 3404.1302,-86 3404.1302,-122"/>
<text text-anchor="middle" x="3324" y="-99.8" font-family="Times,serif" font-size="14.00" fill="#000000">CompanyJobCreate4Page</text>
</g>
<!-- CompanyJobCreate4Page&#45;&gt;AppModule -->
<g id="edge22" class="edge">
<title>CompanyJobCreate4Page&#45;&gt;AppModule</title>
<path fill="none" stroke="#000000" d="M3324,-122.1061C3324,-122.1061 3324,-140.991 3324,-140.991"/>
<polygon fill="#000000" stroke="#000000" points="3320.5001,-140.9909 3324,-150.991 3327.5001,-140.991 3320.5001,-140.9909"/>
</g>
<!-- CompanyJobCreate5Page -->
<g id="node23" class="node">
<title>CompanyJobCreate5Page</title>
<polygon fill="#ffffb3" stroke="#000000" points="3225.1302,-122 3064.8698,-122 3064.8698,-86 3225.1302,-86 3225.1302,-122"/>
<text text-anchor="middle" x="3145" y="-99.8" font-family="Times,serif" font-size="14.00" fill="#000000">CompanyJobCreate5Page</text>
</g>
<!-- CompanyJobCreate5Page&#45;&gt;AppModule -->
<g id="edge23" class="edge">
<title>CompanyJobCreate5Page&#45;&gt;AppModule</title>
<path fill="none" stroke="#000000" d="M3118.2284,-122.1243C3118.2284,-136.7832 3118.2284,-155 3118.2284,-155 3118.2284,-155 3271.8625,-155 3271.8625,-155"/>
<polygon fill="#000000" stroke="#000000" points="3271.8625,-158.5001 3281.8625,-155 3271.8625,-151.5001 3271.8625,-158.5001"/>
</g>
<!-- CompanyJobCreate5Page&#45;&gt;AppModule -->
<g id="edge24" class="edge">
<title>CompanyJobCreate5Page&#45;&gt;AppModule</title>
<path fill="none" stroke="#000000" d="M3171.7716,-122.2458C3171.7716,-136.1772 3171.7716,-153 3171.7716,-153 3171.7716,-153 3272,-153 3272,-153"/>
<polygon fill="#000000" stroke="#000000" points="3272,-156.5001 3282,-153 3271.9999,-149.5001 3272,-156.5001"/>
</g>
<!-- CompanyJobCreate6Page -->
<g id="node24" class="node">
<title>CompanyJobCreate6Page</title>
<polygon fill="#ffffb3" stroke="#000000" points="3046.1302,-122 2885.8698,-122 2885.8698,-86 3046.1302,-86 3046.1302,-122"/>
<text text-anchor="middle" x="2966" y="-99.8" font-family="Times,serif" font-size="14.00" fill="#000000">CompanyJobCreate6Page</text>
</g>
<!-- CompanyJobCreate6Page&#45;&gt;AppModule -->
<g id="edge25" class="edge">
<title>CompanyJobCreate6Page&#45;&gt;AppModule</title>
<path fill="none" stroke="#000000" d="M2966,-122.1871C2966,-137.1824 2966,-156 2966,-156 2966,-156 3272.2322,-156 3272.2322,-156"/>
<polygon fill="#000000" stroke="#000000" points="3272.2322,-159.5001 3282.2322,-156 3272.2322,-152.5001 3272.2322,-159.5001"/>
</g>
<!-- CompanyJobCreate7Page -->
<g id="node25" class="node">
<title>CompanyJobCreate7Page</title>
<polygon fill="#ffffb3" stroke="#000000" points="2867.1302,-122 2706.8698,-122 2706.8698,-86 2867.1302,-86 2867.1302,-122"/>
<text text-anchor="middle" x="2787" y="-99.8" font-family="Times,serif" font-size="14.00" fill="#000000">CompanyJobCreate7Page</text>
</g>
<!-- CompanyJobCreate7Page&#45;&gt;AppModule -->
<g id="edge26" class="edge">
<title>CompanyJobCreate7Page&#45;&gt;AppModule</title>
<path fill="none" stroke="#000000" d="M2787,-122.2819C2787,-137.9478 2787,-158 2787,-158 2787,-158 3272.3094,-158 3272.3094,-158"/>
<polygon fill="#000000" stroke="#000000" points="3272.3094,-161.5001 3282.3094,-158 3272.3093,-154.5001 3272.3094,-161.5001"/>
</g>
<!-- CompanyJobCreate8Page -->
<g id="node26" class="node">
<title>CompanyJobCreate8Page</title>
<polygon fill="#ffffb3" stroke="#000000" points="2688.1302,-122 2527.8698,-122 2527.8698,-86 2688.1302,-86 2688.1302,-122"/>
<text text-anchor="middle" x="2608" y="-99.8" font-family="Times,serif" font-size="14.00" fill="#000000">CompanyJobCreate8Page</text>
</g>
<!-- CompanyJobCreate8Page&#45;&gt;AppModule -->
<g id="edge27" class="edge">
<title>CompanyJobCreate8Page&#45;&gt;AppModule</title>
<path fill="none" stroke="#000000" d="M2608,-122.027C2608,-138.3976 2608,-160 2608,-160 2608,-160 3272.1474,-160 3272.1474,-160"/>
<polygon fill="#000000" stroke="#000000" points="3272.1474,-163.5001 3282.1474,-160 3272.1473,-156.5001 3272.1474,-163.5001"/>
</g>
<!-- CompanyPhase1Page -->
<g id="node27" class="node">
<title>CompanyPhase1Page</title>
<polygon fill="#ffffb3" stroke="#000000" points="2509.8104,-122 2372.1896,-122 2372.1896,-86 2509.8104,-86 2509.8104,-122"/>
<text text-anchor="middle" x="2441" y="-99.8" font-family="Times,serif" font-size="14.00" fill="#000000">CompanyPhase1Page</text>
</g>
<!-- CompanyPhase1Page&#45;&gt;AppModule -->
<g id="edge28" class="edge">
<title>CompanyPhase1Page&#45;&gt;AppModule</title>
<path fill="none" stroke="#000000" d="M2441,-122.0352C2441,-138.7344 2441,-161 2441,-161 2441,-161 3272.3007,-161 3272.3007,-161"/>
<polygon fill="#000000" stroke="#000000" points="3272.3008,-164.5001 3282.3007,-161 3272.3007,-157.5001 3272.3008,-164.5001"/>
</g>
<!-- CompanyPhase2Page -->
<g id="node28" class="node">
<title>CompanyPhase2Page</title>
<polygon fill="#ffffb3" stroke="#000000" points="2354.8104,-122 2217.1896,-122 2217.1896,-86 2354.8104,-86 2354.8104,-122"/>
<text text-anchor="middle" x="2286" y="-99.8" font-family="Times,serif" font-size="14.00" fill="#000000">CompanyPhase2Page</text>
</g>
<!-- CompanyPhase2Page&#45;&gt;AppModule -->
<g id="edge29" class="edge">
<title>CompanyPhase2Page&#45;&gt;AppModule</title>
<path fill="none" stroke="#000000" d="M2286,-122.0225C2286,-139.3734 2286,-163 2286,-163 2286,-163 3272.0236,-163 3272.0236,-163"/>
<polygon fill="#000000" stroke="#000000" points="3272.0236,-166.5001 3282.0236,-163 3272.0235,-159.5001 3272.0236,-166.5001"/>
</g>
<!-- CompanyPhase3Page -->
<g id="node29" class="node">
<title>CompanyPhase3Page</title>
<polygon fill="#ffffb3" stroke="#000000" points="2199.8104,-122 2062.1896,-122 2062.1896,-86 2199.8104,-86 2199.8104,-122"/>
<text text-anchor="middle" x="2131" y="-99.8" font-family="Times,serif" font-size="14.00" fill="#000000">CompanyPhase3Page</text>
</g>
<!-- CompanyPhase3Page&#45;&gt;AppModule -->
<g id="edge30" class="edge">
<title>CompanyPhase3Page&#45;&gt;AppModule</title>
<path fill="none" stroke="#000000" d="M2131,-122.302C2131,-140.2699 2131,-165 2131,-165 2131,-165 3272.24,-165 3272.24,-165"/>
<polygon fill="#000000" stroke="#000000" points="3272.2401,-168.5001 3282.24,-165 3272.24,-161.5001 3272.2401,-168.5001"/>
</g>
<!-- CompanyDetailsPage -->
<g id="node30" class="node">
<title>CompanyDetailsPage</title>
<polygon fill="#ffffb3" stroke="#000000" points="2044.8061,-122 1907.1939,-122 1907.1939,-86 2044.8061,-86 2044.8061,-122"/>
<text text-anchor="middle" x="1976" y="-99.8" font-family="Times,serif" font-size="14.00" fill="#000000">CompanyDetailsPage</text>
</g>
<!-- CompanyDetailsPage&#45;&gt;AppModule -->
<g id="edge31" class="edge">
<title>CompanyDetailsPage&#45;&gt;AppModule</title>
<path fill="none" stroke="#000000" d="M1976,-122.2667C1976,-140.5552 1976,-166 1976,-166 1976,-166 3272.1789,-166 3272.1789,-166"/>
<polygon fill="#000000" stroke="#000000" points="3272.1789,-169.5001 3282.1789,-166 3272.1788,-162.5001 3272.1789,-169.5001"/>
</g>
<!-- RecruiterCompanySelectPage -->
<g id="node31" class="node">
<title>RecruiterCompanySelectPage</title>
<polygon fill="#ffffb3" stroke="#000000" points="1888.944,-122 1705.056,-122 1705.056,-86 1888.944,-86 1888.944,-122"/>
<text text-anchor="middle" x="1797" y="-99.8" font-family="Times,serif" font-size="14.00" fill="#000000">RecruiterCompanySelectPage</text>
</g>
<!-- RecruiterCompanySelectPage&#45;&gt;AppModule -->
<g id="edge32" class="edge">
<title>RecruiterCompanySelectPage&#45;&gt;AppModule</title>
<path fill="none" stroke="#000000" d="M1797,-122.1686C1797,-141.0898 1797,-168 1797,-168 1797,-168 3271.9659,-168 3271.9659,-168"/>
<polygon fill="#000000" stroke="#000000" points="3271.9659,-171.5001 3281.9659,-168 3271.9659,-164.5001 3271.9659,-171.5001"/>
</g>
<!-- RecruiterRegisterPage -->
<g id="node32" class="node">
<title>RecruiterRegisterPage</title>
<polygon fill="#ffffb3" stroke="#000000" points="1686.9468,-122 1545.0532,-122 1545.0532,-86 1686.9468,-86 1686.9468,-122"/>
<text text-anchor="middle" x="1616" y="-99.8" font-family="Times,serif" font-size="14.00" fill="#000000">RecruiterRegisterPage</text>
</g>
<!-- RecruiterRegisterPage&#45;&gt;AppModule -->
<g id="edge33" class="edge">
<title>RecruiterRegisterPage&#45;&gt;AppModule</title>
<path fill="none" stroke="#000000" d="M1616,-122.1061C1616,-141.3391 1616,-169 1616,-169 1616,-169 3272.2037,-169 3272.2037,-169"/>
<polygon fill="#000000" stroke="#000000" points="3272.2037,-172.5001 3282.2037,-169 3272.2036,-165.5001 3272.2037,-172.5001"/>
</g>
<!-- RecruiterContactPage -->
<g id="node33" class="node">
<title>RecruiterContactPage</title>
<polygon fill="#ffffb3" stroke="#000000" points="1527.3417,-122 1388.6583,-122 1388.6583,-86 1527.3417,-86 1527.3417,-122"/>
<text text-anchor="middle" x="1458" y="-99.8" font-family="Times,serif" font-size="14.00" fill="#000000">RecruiterContactPage</text>
</g>
<!-- RecruiterContactPage&#45;&gt;AppModule -->
<g id="edge34" class="edge">
<title>RecruiterContactPage&#45;&gt;AppModule</title>
<path fill="none" stroke="#000000" d="M1458,-122.308C1458,-142.1455 1458,-171 1458,-171 1458,-171 3271.9659,-171 3271.9659,-171"/>
<polygon fill="#000000" stroke="#000000" points="3271.966,-174.5001 3281.9659,-171 3271.9659,-167.5001 3271.966,-174.5001"/>
</g>
<!-- TabsPage -->
<g id="node34" class="node">
<title>TabsPage</title>
<polygon fill="#ffffb3" stroke="#000000" points="1370.4249,-122 1299.5751,-122 1299.5751,-86 1370.4249,-86 1370.4249,-122"/>
<text text-anchor="middle" x="1335" y="-99.8" font-family="Times,serif" font-size="14.00" fill="#000000">TabsPage</text>
</g>
<!-- TabsPage&#45;&gt;AppModule -->
<g id="edge35" class="edge">
<title>TabsPage&#45;&gt;AppModule</title>
<path fill="none" stroke="#000000" d="M1335,-122.1289C1335,-142.5724 1335,-173 1335,-173 1335,-173 3271.998,-173 3271.998,-173"/>
<polygon fill="#000000" stroke="#000000" points="3271.998,-176.5001 3281.998,-173 3271.998,-169.5001 3271.998,-176.5001"/>
</g>
<!-- PresentationLinkAddModal -->
<g id="node35" class="node">
<title>PresentationLinkAddModal</title>
<polygon fill="#ffffb3" stroke="#000000" points="1282.3033,-122 1109.6967,-122 1109.6967,-86 1282.3033,-86 1282.3033,-122"/>
<text text-anchor="middle" x="1196" y="-99.8" font-family="Times,serif" font-size="14.00" fill="#000000">PresentationLinkAddModal</text>
</g>
<!-- PresentationLinkAddModal&#45;&gt;AppModule -->
<g id="edge36" class="edge">
<title>PresentationLinkAddModal&#45;&gt;AppModule</title>
<path fill="none" stroke="#000000" d="M1196,-122.0267C1196,-142.7672 1196,-174 1196,-174 1196,-174 3271.9707,-174 3271.9707,-174"/>
<polygon fill="#000000" stroke="#000000" points="3271.9708,-177.5001 3281.9707,-174 3271.9707,-170.5001 3271.9708,-177.5001"/>
</g>
<!-- IonicApp  -->
<g id="node37" class="node">
<title>IonicApp </title>
<polygon fill="#80b1d3" stroke="#000000" points="3360.3734,-252 3287.6266,-252 3287.6266,-216 3360.3734,-216 3360.3734,-252"/>
<text text-anchor="middle" x="3324" y="-229.8" font-family="Times,serif" font-size="14.00" fill="#000000">IonicApp </text>
</g>
<!-- AppModule&#45;&gt;IonicApp  -->
<g id="edge37" class="edge">
<title>AppModule&#45;&gt;IonicApp </title>
<path fill="none" stroke="#000000" stroke-dasharray="1,5" d="M3324,-187.1061C3324,-187.1061 3324,-205.991 3324,-205.991"/>
<polygon fill="#000000" stroke="#000000" points="3320.5001,-205.9909 3324,-215.991 3327.5001,-205.991 3320.5001,-205.9909"/>
</g>
<!-- ApiService -->
<g id="node38" class="node">
<title>ApiService</title>
<ellipse fill="#fdb462" stroke="#000000" cx="1032" cy="-104" rx="54.4508" ry="18"/>
<text text-anchor="middle" x="1032" y="-99.8" font-family="Times,serif" font-size="14.00" fill="#000000">ApiService</text>
</g>
<!-- ApiService&#45;&gt;AppModule -->
<g id="edge38" class="edge">
<title>ApiService&#45;&gt;AppModule</title>
<path fill="none" stroke="#000000" d="M1032,-122.1686C1032,-143.498 1032,-176 1032,-176 1032,-176 3272.2615,-176 3272.2615,-176"/>
<polygon fill="#000000" stroke="#000000" points="3272.2615,-179.5001 3282.2615,-176 3272.2615,-172.5001 3272.2615,-179.5001"/>
</g>
<!-- AuthService -->
<g id="node39" class="node">
<title>AuthService</title>
<ellipse fill="#fdb462" stroke="#000000" cx="900" cy="-104" rx="59.1083" ry="18"/>
<text text-anchor="middle" x="900" y="-99.8" font-family="Times,serif" font-size="14.00" fill="#000000">AuthService</text>
</g>
<!-- AuthService&#45;&gt;AppModule -->
<g id="edge39" class="edge">
<title>AuthService&#45;&gt;AppModule</title>
<path fill="none" stroke="#000000" d="M900,-122.2921C900,-144.2057 900,-178 900,-178 900,-178 3272.1823,-178 3272.1823,-178"/>
<polygon fill="#000000" stroke="#000000" points="3272.1823,-181.5001 3282.1823,-178 3272.1823,-174.5001 3272.1823,-181.5001"/>
</g>
<!-- CompanyService -->
<g id="node40" class="node">
<title>CompanyService</title>
<ellipse fill="#fdb462" stroke="#000000" cx="745" cy="-104" rx="77.5897" ry="18"/>
<text text-anchor="middle" x="745" y="-99.8" font-family="Times,serif" font-size="14.00" fill="#000000">CompanyService</text>
</g>
<!-- CompanyService&#45;&gt;AppModule -->
<g id="edge40" class="edge">
<title>CompanyService&#45;&gt;AppModule</title>
<path fill="none" stroke="#000000" d="M745,-122.1554C745,-144.3519 745,-179 745,-179 745,-179 3272.1824,-179 3272.1824,-179"/>
<polygon fill="#000000" stroke="#000000" points="3272.1824,-182.5001 3282.1824,-179 3272.1823,-175.5001 3272.1824,-182.5001"/>
</g>
<!-- JobPostingService -->
<g id="node41" class="node">
<title>JobPostingService</title>
<ellipse fill="#fdb462" stroke="#000000" cx="567" cy="-104" rx="82.2623" ry="18"/>
<text text-anchor="middle" x="567" y="-99.8" font-family="Times,serif" font-size="14.00" fill="#000000">JobPostingService</text>
</g>
<!-- JobPostingService&#45;&gt;AppModule -->
<g id="edge41" class="edge">
<title>JobPostingService&#45;&gt;AppModule</title>
<path fill="none" stroke="#000000" d="M567,-122.2479C567,-145.0179 567,-181 567,-181 567,-181 3272.0711,-181 3272.0711,-181"/>
<polygon fill="#000000" stroke="#000000" points="3272.0711,-184.5001 3282.0711,-181 3272.071,-177.5001 3272.0711,-184.5001"/>
</g>
<!-- RecruiterService -->
<g id="node42" class="node">
<title>RecruiterService</title>
<ellipse fill="#fdb462" stroke="#000000" cx="391" cy="-104" rx="75.8354" ry="18"/>
<text text-anchor="middle" x="391" y="-99.8" font-family="Times,serif" font-size="14.00" fill="#000000">RecruiterService</text>
</g>
<!-- RecruiterService&#45;&gt;AppModule -->
<g id="edge42" class="edge">
<title>RecruiterService&#45;&gt;AppModule</title>
<path fill="none" stroke="#000000" d="M391,-122.3228C391,-145.6602 391,-183 391,-183 391,-183 3272.2569,-183 3272.2569,-183"/>
<polygon fill="#000000" stroke="#000000" points="3272.2569,-186.5001 3282.2569,-183 3272.2569,-179.5001 3272.2569,-186.5001"/>
</g>
<!-- StudentService -->
<g id="node43" class="node">
<title>StudentService</title>
<ellipse fill="#fdb462" stroke="#000000" cx="228" cy="-104" rx="69.4993" ry="18"/>
<text text-anchor="middle" x="228" y="-99.8" font-family="Times,serif" font-size="14.00" fill="#000000">StudentService</text>
</g>
<!-- StudentService&#45;&gt;AppModule -->
<g id="edge43" class="edge">
<title>StudentService&#45;&gt;AppModule</title>
<path fill="none" stroke="#000000" d="M228,-122.1532C228,-145.7566 228,-184 228,-184 228,-184 3272.2858,-184 3272.2858,-184"/>
<polygon fill="#000000" stroke="#000000" points="3272.2859,-187.5001 3282.2858,-184 3272.2858,-180.5001 3272.2859,-187.5001"/>
</g>
<!-- DataService -->
<g id="node44" class="node">
<title>DataService</title>
<ellipse fill="#fdb462" stroke="#000000" cx="82" cy="-104" rx="58.4415" ry="18"/>
<text text-anchor="middle" x="82" y="-99.8" font-family="Times,serif" font-size="14.00" fill="#000000">DataService</text>
</g>
<!-- DataService&#45;&gt;AppModule -->
<g id="edge44" class="edge">
<title>DataService&#45;&gt;AppModule</title>
<path fill="none" stroke="#000000" d="M82,-122.1985C82,-146.3563 82,-186 82,-186 82,-186 3272.1214,-186 3272.1214,-186"/>
<polygon fill="#000000" stroke="#000000" points="3272.1214,-189.5001 3282.1214,-186 3272.1213,-182.5001 3272.1214,-189.5001"/>
</g>
</g>
</svg>
